PathFileType        4      (X/Y/Z)      C:\Users\pc\Desktop\IMUTRC\Sujet_07\Sujet_07_velo_100.trc         
DataRate	CameraRate	NumFrames	NumMarkers	Units	OrigDataRate	OrigDataStartFrame	OrigNumFrames
60.0	60.0	4	64	mm	60.0	234	933
Frame#	Time	pHipOrigin			pRightASI			pLeftASI			pRightCSI			pLeftCSI			pRightIschialTub			pLeftIschialTub			pSacrum			pL5SpinalProcess			pL3SpinalProcess			pT12SpinalProcess			pIJ			pT4SpinalProcess			pT8SpinalProcess			pPX			pC7SpinalProcess			pTopOfHead			pRightAuricularis			pLeftAuricularis			pBackOfHead			pRightAcromion			pLeftAcromion			pRightArmLatEpicondyle			pRightArmMedEpicondyle			pLeftArmLatEpicondyle			pLeftArmMedEpicondyle			pRightUlnarStyloid			pRightRadialStyloid			pRightOlecranon			pLeftUlnarStyloid			pLeftRadialStyloid			pLeftOlecranon			pRightTopOfHand			pRightPinky			pRightBallHand			pLeftTopOfHand			pLeftPinky			pLeftBallHand			pRightGreaterTrochanter			pRightKneeLatEpicondyle			pRightKneeMedEpicondyle			pRightPatella			pLeftGreaterTrochanter			pLeftKneeLatEpicondyle			pLeftKneeMedEpicondyle			pLeftPatella			pRightTibialTub			pRightLatMalleolus			pRightMedMalleolus			pLeftTibialTub			pLeftLatMalleolus			pLeftMedMalleolus			pRightHeelFoot			pRightFirstMetatarsal			pRightFifthMetatarsal			pRightPivotFoot			pRightHeelCenter			pRightToe			pLeftHeelFoot			pLeftFirstMetatarsal			pLeftFifthMetatarsal			pLeftPivotFoot			pLeftHeelCenter			pLeftToe			
		X1	Y1	Z1	X2	Y2	Z2	X3	Y3	Z3	X4	Y4	Z4	X5	Y5	Z5	X6	Y6	Z6	X7	Y7	Z7	X8	Y8	Z8	X9	Y9	Z9	X10	Y10	Z10	X11	Y11	Z11	X12	Y12	Z12	X13	Y13	Z13	X14	Y14	Z14	X15	Y15	Z15	X16	Y16	Z16	X17	Y17	Z17	X18	Y18	Z18	X19	Y19	Z19	X20	Y20	Z20	X21	Y21	Z21	X22	Y22	Z22	X23	Y23	Z23	X24	Y24	Z24	X25	Y25	Z25	X26	Y26	Z26	X27	Y27	Z27	X28	Y28	Z28	X29	Y29	Z29	X30	Y30	Z30	X31	Y31	Z31	X32	Y32	Z32	X33	Y33	Z33	X34	Y34	Z34	X35	Y35	Z35	X36	Y36	Z36	X37	Y37	Z37	X38	Y38	Z38	X39	Y39	Z39	X40	Y40	Z40	X41	Y41	Z41	X42	Y42	Z42	X43	Y43	Z43	X44	Y44	Z44	X45	Y45	Z45	X46	Y46	Z46	X47	Y47	Z47	X48	Y48	Z48	X49	Y49	Z49	X50	Y50	Z50	X51	Y51	Z51	X52	Y52	Z52	X53	Y53	Z53	X54	Y54	Z54	X55	Y55	Z55	X56	Y56	Z56	X57	Y57	Z57	X58	Y58	Z58	X59	Y59	Z59	X60	Y60	Z60	X61	Y61	Z61	X62	Y62	Z62	X63	Y63	Z63	X64	Y64	Z64	
234	3.883	0.0	1249.97763	7.653905517926474E-14	112.50998036113276	1330.32432	129.7810776559416	96.91374180240629	1306.11636	-153.00800475337948	95.05689180198712	1410.67101	98.52545378938086	82.24006235960526	1390.76998	-134.1271264244691	-73.60638117780174	1223.02214	65.11363196123422	-80.03335406886566	1213.07162	-51.180504452575256	-56.09734242570633	1297.65099	-1.0050527490874104	22.40193441398538	1379.92838	-10.73192859284833	111.55217462825456	1464.21072	-23.31271415093268	196.01904487403658	1538.31977	-34.91040497295503	461.568912377389	1504.08703	-69.80594743194504	374.5813758331482	1635.15164	-58.89185451206545	288.64996743813674	1599.508	-47.28226920595486	346.3850685653843	1450.54732	-54.16341773847477	429.39929880627915	1656.46356	-64.28466226692551	701.7540175863518	1661.36456	-96.70909287514492	611.3478656526288	1626.53776	-17.200404409145236	593.0122123494587	1652.75068	-158.46226129808656	591.338265339441	1694.33492	-76.25582002755813	439.2867625845811	1592.82482	122.94656811105865	405.9264650665671	1629.21103	-247.44082163212732	479.07753612906527	1314.06191	112.39338665954453	446.64546399880976	1309.30943	56.88400338388555	407.0968266702512	1324.01243	-255.85410739293584	367.4045927602133	1318.59163	-205.372501594842	555.7225690973091	1065.96738	68.15531541075457	605.2589770606658	1087.79911	69.83115999376126	437.72760318255996	1305.00249	86.29061141245793	448.8946454281191	1065.74461	-245.5271131271186	498.58722949121216	1081.56147	-260.3099334837834	362.92324491839895	1317.84905	-224.93735944643052	735.7820750333776	1025.27423	181.63044274373408	661.4153883094557	1005.37321	125.83302254012457	612.6829175526491	1046.21487	78.06165786927836	589.6974994526222	1004.40786	-398.6620701482621	534.1121950120112	993.41774	-322.2865187029397	501.63978791415394	1040.86832	-267.3792997653908	34.287068713086285	1236.61127	172.59369494632944	402.7082603238943	992.37813	129.8666524913412	403.46802498896807	996.53656	44.04558148963785	426.97858217955206	1036.33861	86.34406192129258	-4.4459072447208	1215.15083	-176.458222766405	193.80191023600767	818.68968	-203.05073513266822	211.9234055203797	814.67977	-119.19034567432038	244.13837945215607	841.18972	-165.92889728866402	446.9941299996277	951.68499	88.21083615559698	271.81575073422977	584.77834	167.22232943083677	269.53590772739597	577.72388	102.1115933519535	236.6705471240637	763.14502	-168.4398122740026	-22.733313494815334	440.27312	-167.20930600258868	-9.479010010659707	436.56024	-103.1365530560834	225.55986545963205	501.3871	134.17133287551704	393.0688659365346	491.5851	110.32487332444238	386.15871631982515	494.92669	189.42244354848586	412.12949471614115	492.03064	150.82589585395436	266.0438042392385	504.06037	137.5660940187306	503.9225851486813	485.57023	159.06363944103023	-90.88884651142341	388.14431	-120.29920000088532	56.21550479150332	303.93622	-120.68499047201546	37.72324081047725	308.39168	-197.81406970990238	66.06781748026229	294.8768	-163.44281662100155	-54.712711358368146	372.10467	-129.93820410745556	142.35165408483164	247.35196	-184.4809774163982	
235	3.9	0.0	1249.97763	7.653905517926474E-14	113.64569245898997	1329.80452	129.15060659968225	95.05606155531967	1307.52725	-153.65180818120834	95.51700442064329	1410.37398	98.61961535666484	80.26833629845876	1392.03236	-133.9793167079557	-72.78030750777339	1222.27956	65.76205039395025	-80.4689551153507	1213.07162	-50.57454130823301	-56.22134085353521	1297.42822	-0.04770117202913809	21.80059493478432	1380.07689	-10.135918062275087	110.6120514839123	1464.73052	-23.1695330995605	194.80445777129222	1539.1366	-35.18291840078391	460.3324781767874	1505.49792	-71.37726057628728	372.9836005860615	1636.33976	-59.985826605035484	287.2252237632212	1600.54761	-47.93336077323886	345.2474059369538	1451.73545	-55.16322826416086	427.78429512647654	1657.87445	-65.64581383909662	700.1118328600642	1663.29525	-98.17168549380104	609.6413648798562	1628.31994	-18.70011836754732	591.4442826231709	1654.38435	-160.05346734945877	589.5402811339522	1696.04284	-77.89410003244522	438.2704425699196	1594.0872	121.58808601320143	403.43564928890726	1630.54767	-248.62166215292632	478.11556088686575	1315.17578	111.23777665465737	445.85918480309533	1310.49755	55.57259889979735	405.70192851613456	1325.34907	-257.002432918622	365.97256460609674	1319.77975	-206.45651607404304	555.3837940924219	1067.30402	67.7024909315535	604.8459383955245	1089.21	69.50694394727621	436.8770216006145	1306.11636	84.94208192836972	448.4816067629779	1067.22976	-245.85132917360366	498.137069486325	1083.19514	-260.5698334837834	361.4640357177974	1319.03717	-226.12281497211663	735.2477110749754	1027.05642	181.66490826942015	661.0195817372846	1006.93262	125.7759996330947	612.3341985942469	1047.70002	77.77457682279329	589.6603694526223	1005.89301	-398.59775910177706	533.919261872556	994.90289	-322.3979087029397	501.25393029549775	1042.42773	-267.6020747653908	33.08971004305795	1233.12117	172.58836099770164	389.88607221325486	972.18007	130.09509376317425	392.10043607404305	977.74939	44.42786304984472	416.8500919395425	1015.62075	87.69898162095456	-4.997508296092974	1216.56173	-176.69094171991998	212.97630412430698	831.01644	-208.78645955154076	232.17648493925222	827.2293	-125.16074823753513	262.4668117633971	855.66995	-171.98155327482056	437.8256608109905	934.45723	89.09107061794666	283.40416411858143	557.67433	164.82390867002826	282.12874664232095	550.76838	99.60711653977287	252.020154709017	774.13514	-173.63993248738637	-29.638356910679946	470.57021	-165.79397997784218	-16.116877607577294	466.78307	-101.73846912430699	239.87715618404044	472.79793	131.20479791410702	407.45579299580186	468.11971	106.198104693004	400.9785749512635	470.42169	185.28839543784645	426.79355020812443	468.71377	146.5161466968299	280.3438578706769	476.65933	134.33237457811953	518.7921822079485	464.70386	154.10086184630254	-100.34707122085968	421.33744	-118.47155425473832	42.692486685751035	330.37192	-118.20307604117866	24.467415844180053	335.27292	-195.34938737203566	52.10193250907795	320.64418	-160.78787427824764	-64.88099607269157	403.58988	-127.92029835642141	126.23833334576176	269.40645	-181.52242721767584	
236	3.917	0.0	1249.97763	7.653905517926474E-14	115.16992298956319	1329.1362	128.14422187828174	92.64678525686088	1309.16092	-154.52833922280624	96.3828639047315	1409.85418	98.60504273800868	77.83650261865613	1393.44325	-133.92567721898033	-71.76131435854398	1221.46273	66.52186248692031	-81.05306616183573	1213.22014	-49.71135129845871	-56.39242189513308	1297.2797	1.1396998842301946	21.199241795329225	1380.22541	-9.539903871447802	109.70906699982409	1465.25032	-23.090658094673348	193.53550857557778	1539.87918	-35.65831392158284	458.81428687832863	1506.90882	-73.79719611174767	371.2970013805728	1637.60214	-61.81703108912372	285.7017035161346	1601.58722	-49.155946298924945	344.01097173635225	1452.84931	-56.7345414085031	425.98898039530167	1659.13683	-67.88277750912495	698.3165044686352	1665.07744	-100.40864550357533	607.69025566948	1630.10212	-21.112778084060736	589.7974828919962	1655.94376	-162.5476665451732	587.6634269235765	1697.67651	-80.43537318167465	437.49677680203405	1595.27532	119.51225443125601	400.3958969341892	1631.58727	-250.63389663212732	477.17350087220433	1316.21538	109.75067246383009	445.25856426763494	1311.53716	53.939644183283995	403.6367648314448	1326.38867	-258.6234844907931	364.2932498798091	1320.67084	-207.8547976462142	555.0277869945647	1068.41788	66.98247331289734	604.4899262976674	1090.47238	68.78693498887411	436.07351031193	1307.0817	83.36348430482641	447.8484712324047	1068.41788	-246.38836626657368	497.36536290926676	1084.53177	-261.0153784837834	359.59179651230875	1319.92826	-227.63248154428783	734.6961100236033	1028.69008	181.43218931590516	660.5422406859124	1008.41777	125.41465858660965	612.0053588826206	1048.9624	77.15600391087621	589.3388228804511	1007.08113	-398.7834041017771	533.4319718676688	996.16527	-322.59349765645476	500.61084581140955	1043.76437	-267.9733597653908	31.993801079768673	1230.00235	172.55585100258878	373.9166478090438	949.60577	131.7647881988982	377.5584248190614	955.99192	46.149965387711404	403.8614464524464	991.85833	90.14643552610526	-6.046351966121321	1218.34391	-176.95351119423387	232.45306196123408	845.86795	-216.23401369181383	252.93480539972265	842.22933	-132.8973339548665	280.99616697678096	872.82345	-179.71885793589257	424.8867537517232	914.40769	90.70979503900912	289.7039719940986	529.23368	160.74402135171016	289.49729109489624	522.99605	95.45830317008256	267.91479780988215	788.46685	-181.2692219062589	-31.471520585595442	502.79799	-165.73766735429888	-17.07422918463557	498.63957	-101.86246755213587	247.21122645067567	444.43154	126.52161558601459	414.646685871319	441.01569	100.57481288082339	408.6295767851827	442.5751	179.7592515326957	434.1873201766116	441.38698	140.83850145193324	287.65075075108115	448.51571	129.5477648637961	526.4829785161817	437.82262	147.9087318897797	-103.74887856580352	456.83256	-117.77749109573462	34.941481692828134	359.33237	-117.10468158371614	16.81782957723412	364.5304	-194.27817530080418	43.81654123724486	348.86205	-159.65501563484503	-69.1486629017236	437.37707	-127.21166257876156	115.40973205438006	294.20848	-180.14299960609677	
237	3.933	0.0	1249.97763	7.653905517926474E-14	117.07272665959152	1328.24511	126.92768924496411	89.84171104648499	1310.9431	-155.46188817143405	97.5530415282748	1409.18586	98.50893564015146	75.13747079939839	1394.92841	-133.8547969767809	-70.5222106836285	1220.57164	67.49449196612137	-81.71142854806673	1213.44291	-48.719534195714346	-56.54627084376091	1297.05693	2.5942940799446297	20.662213362613198	1380.44818	-8.906763340874562	108.67746042276582	1465.69587	-23.086043089786177	192.2493309471473	1540.62175	-36.40088892158284	457.2344626679527	1508.31971	-76.85294031234929	369.5116356029129	1638.79026	-64.2197468521221	284.13377378984694	1602.55256	-50.747152350297114	342.7672530565496	1453.96317	-58.73877746476247	424.0677080454707	1660.47347	-70.79267618404042	696.3952407790582	1666.7111	-103.31853917849084	605.548872793963	1631.73579	-24.235494145207227	588.1261665886502	1657.50316	-165.74198179225976	585.6977450945444	1699.23592	-83.71389238227623	436.8272215549475	1596.46344	116.81055813768435	396.8615664351288	1632.40411	-253.27465663701452	476.2785011508038	1317.25499	108.0335174540558	444.6406929789505	1312.57676	52.03950864782359	401.2600035280989	1327.2055	-260.5959331559343	362.26521119511926	1321.48767	-209.54015160461628	554.6174128037375	1069.53175	66.05958226152516	603.978119720609	1091.6605	67.89122998398692	435.31708163701455	1308.12131	81.55483720208207	446.9580951761453	1069.53175	-247.07390969928974	496.50216423923837	1085.86841	-261.5994945302684	357.4079596881638	1320.59658	-229.49354520942896	733.988705832776	1030.32375	181.02376931590518	660.0748435880552	1009.7544	124.8875741074086	611.5850493985324	1050.15052	76.39886129222008	588.7872268290789	1008.04648	-399.016131715546	532.7517573835806	997.27913	-322.90047160996966	499.8391392343513	1044.95249	-268.4189047653908	30.887934502710394	1227.18056	172.689088100446	354.4439923339119	925.47206	134.15573684011088	359.5403498793899	932.00673	48.69476663780597	387.57243466689147	965.94244	93.26077154377464	-7.426691161835748	1220.42312	-177.2359735755777	252.27658822599005	863.39274	-225.0247683675473	274.14133533450695	859.90263	-142.0043012541433	299.57793375256153	892.72448	-188.88356208593996	408.7389774869672	891.90764	93.1339639588213	291.45702041704027	499.67917	155.92547241504658	292.4205171413813	494.40688	90.54364713556177	284.8934553899483	805.62035	-190.33053947924805	-28.952808477963927	536.36241	-166.68436469435554	-13.338261839691747	531.75844	-103.13531280899679	248.63544882224522	416.06515	121.08449007717988	415.95490823800134	410.94138	94.29900527413147	410.26928967755117	411.75821	173.5033454932878	435.634104929525	410.64435	134.47119675227125	289.1863631226507	419.62951	123.91770621550631	527.9224837898939	405.96612	141.10849561794657	-102.15304884929014	494.18411	-118.31380924496403	32.12378539436934	390.66906	-117.27380843448674	13.898705892544342	396.01561	-194.42012476534376	40.36304493389892	379.45617	-159.76250457369852	-68.5201373760375	473.16922	-127.7062407231038	109.31156602474643	321.53527	-179.97672620978076	
